<svg width="32" height="32" viewBox="0 0 32 32" fill="none" xmlns="http://www.w3.org/2000/svg">
<path d="M3 16C3 23.1794 8.82062 29 16 29C23.1794 29 29 23.1794 29 16C29 8.82062 23.1794 3 16 3C8.82062 3 3 8.82062 3 16ZM19.0856 16L13.7931 10.7069C13.6135 10.5178 13.5148 10.2661 13.5182 10.0053C13.5215 9.74454 13.6266 9.4954 13.811 9.311C13.9954 9.1266 14.2445 9.02152 14.5053 9.01819C14.7661 9.01485 15.0178 9.11351 15.2069 9.29313L21.2069 15.2931C21.3943 15.4806 21.4995 15.7349 21.4995 16C21.4995 16.2651 21.3943 16.5194 21.2069 16.7069L15.2069 22.7069C15.0178 22.8865 14.7661 22.9852 14.5053 22.9818C14.2445 22.9785 13.9954 22.8734 13.811 22.689C13.6266 22.5046 13.5215 22.2555 13.5182 21.9947C13.5148 21.7339 13.6135 21.4822 13.7931 21.2931L19.0856 16Z" fill="white"/>
</svg>
